<svg width="512" height="512" viewBox="0 0 512 512" fill="none" xmlns="http://www.w3.org/2000/svg">
<rect width="512" height="512" rx="64" fill="#2563EB"/>
<path d="M256 128C315.647 128 364 176.353 364 236C364 295.647 315.647 344 256 344C196.353 344 148 295.647 148 236C148 176.353 196.353 128 256 128Z" fill="white"/>
<path d="M214 192L298 192L298 214L214 214L214 192Z" fill="#2563EB"/>
<path d="M214 235L298 235L298 257L214 257L214 235Z" fill="#2563EB"/>
<path d="M214 278L298 278L298 300L214 300L214 278Z" fill="#2563EB"/>
<path d="M128 384L384 384L384 406L128 406L128 384Z" fill="white"/>
</svg>
